<mxfile host="app.diagrams.net" modified="2023-10-27T12:17:46.569Z" agent="Mozilla/5.0 (Windows NT 10.0; Win64; x64) AppleWebKit/537.36 (KHTML, like Gecko) Chrome/118.0.0.0 Safari/537.36" etag="s95QbpeOwGmfLduxwoUl" version="22.0.8" type="github">
  <diagram name="Страница — 1" id="ghhEM-y8LoZU_r0PBkdJ">
    <mxGraphModel dx="1434" dy="768" grid="1" gridSize="10" guides="1" tooltips="1" connect="1" arrows="1" fold="1" page="1" pageScale="1" pageWidth="900" pageHeight="1600" math="0" shadow="0">
      <root>
        <mxCell id="0" />
        <mxCell id="1" parent="0" />
        <mxCell id="GaQ0T8FDwDxEnOl5zq54-8" value="" style="swimlane;whiteSpace=wrap;html=1;rounded=1;" parent="1" vertex="1">
          <mxGeometry x="10" y="10" width="880" height="1730" as="geometry" />
        </mxCell>
        <mxCell id="GaQ0T8FDwDxEnOl5zq54-4" value="&lt;font style=&quot;font-size: 18px;&quot;&gt;&lt;b&gt;Оптовый покупатель&lt;/b&gt;&lt;/font&gt;" style="text;html=1;align=center;verticalAlign=middle;resizable=0;points=[];autosize=1;strokeColor=none;fillColor=none;rounded=1;" parent="GaQ0T8FDwDxEnOl5zq54-8" vertex="1">
          <mxGeometry x="335" y="-8" width="210" height="40" as="geometry" />
        </mxCell>
        <mxCell id="GaQ0T8FDwDxEnOl5zq54-11" value="" style="edgeStyle=orthogonalEdgeStyle;rounded=1;orthogonalLoop=1;jettySize=auto;html=1;" parent="GaQ0T8FDwDxEnOl5zq54-8" source="GaQ0T8FDwDxEnOl5zq54-9" target="GaQ0T8FDwDxEnOl5zq54-13" edge="1">
          <mxGeometry relative="1" as="geometry">
            <mxPoint x="347.5" y="185" as="targetPoint" />
          </mxGeometry>
        </mxCell>
        <mxCell id="GaQ0T8FDwDxEnOl5zq54-9" value="Видит рекламу" style="rounded=1;whiteSpace=wrap;html=1;" parent="GaQ0T8FDwDxEnOl5zq54-8" vertex="1">
          <mxGeometry x="292.5" y="65" width="110" height="40" as="geometry" />
        </mxCell>
        <mxCell id="GaQ0T8FDwDxEnOl5zq54-13" value="Попадает на сайт" style="rounded=1;whiteSpace=wrap;html=1;" parent="GaQ0T8FDwDxEnOl5zq54-8" vertex="1">
          <mxGeometry x="292.5" y="185" width="110" height="40" as="geometry" />
        </mxCell>
        <mxCell id="GaQ0T8FDwDxEnOl5zq54-66" style="edgeStyle=orthogonalEdgeStyle;rounded=1;orthogonalLoop=1;jettySize=auto;html=1;exitX=0.5;exitY=0;exitDx=0;exitDy=0;exitPerimeter=0;strokeWidth=2;" parent="GaQ0T8FDwDxEnOl5zq54-8" source="GaQ0T8FDwDxEnOl5zq54-20" edge="1">
          <mxGeometry relative="1" as="geometry">
            <mxPoint x="760" y="290" as="targetPoint" />
            <Array as="points">
              <mxPoint x="760" y="261" />
            </Array>
          </mxGeometry>
        </mxCell>
        <mxCell id="GaQ0T8FDwDxEnOl5zq54-20" value="" style="strokeWidth=2;html=1;shape=mxgraph.flowchart.annotation_2;align=left;labelPosition=right;pointerEvents=1;rotation=90;rounded=1;" parent="GaQ0T8FDwDxEnOl5zq54-8" vertex="1">
          <mxGeometry x="311.88" y="145.63" width="71.25" height="231.25" as="geometry" />
        </mxCell>
        <mxCell id="GaQ0T8FDwDxEnOl5zq54-24" value="" style="edgeStyle=orthogonalEdgeStyle;rounded=1;orthogonalLoop=1;jettySize=auto;html=1;" parent="GaQ0T8FDwDxEnOl5zq54-8" source="GaQ0T8FDwDxEnOl5zq54-21" edge="1">
          <mxGeometry relative="1" as="geometry">
            <mxPoint x="232" y="430" as="targetPoint" />
          </mxGeometry>
        </mxCell>
        <mxCell id="GaQ0T8FDwDxEnOl5zq54-21" value="Видит Слайд для оптовых покупателей" style="rounded=1;whiteSpace=wrap;html=1;" parent="GaQ0T8FDwDxEnOl5zq54-8" vertex="1">
          <mxGeometry x="160.38" y="290" width="143" height="40" as="geometry" />
        </mxCell>
        <mxCell id="GaQ0T8FDwDxEnOl5zq54-27" value="" style="edgeStyle=orthogonalEdgeStyle;rounded=1;orthogonalLoop=1;jettySize=auto;html=1;" parent="GaQ0T8FDwDxEnOl5zq54-8" source="GaQ0T8FDwDxEnOl5zq54-25" edge="1">
          <mxGeometry relative="1" as="geometry">
            <mxPoint x="232" y="570" as="targetPoint" />
          </mxGeometry>
        </mxCell>
        <mxCell id="GaQ0T8FDwDxEnOl5zq54-25" value="Кликает на кнопку &quot;Купить Оптом&quot;" style="rounded=1;whiteSpace=wrap;html=1;" parent="GaQ0T8FDwDxEnOl5zq54-8" vertex="1">
          <mxGeometry x="132" y="430" width="200" height="40" as="geometry" />
        </mxCell>
        <mxCell id="GaQ0T8FDwDxEnOl5zq54-30" value="" style="edgeStyle=orthogonalEdgeStyle;rounded=1;orthogonalLoop=1;jettySize=auto;html=1;" parent="GaQ0T8FDwDxEnOl5zq54-8" source="GaQ0T8FDwDxEnOl5zq54-28" edge="1">
          <mxGeometry relative="1" as="geometry">
            <mxPoint x="232" y="710" as="targetPoint" />
          </mxGeometry>
        </mxCell>
        <mxCell id="GaQ0T8FDwDxEnOl5zq54-28" value="Попадает в Каталог" style="rounded=1;whiteSpace=wrap;html=1;" parent="GaQ0T8FDwDxEnOl5zq54-8" vertex="1">
          <mxGeometry x="157" y="570" width="150" height="40" as="geometry" />
        </mxCell>
        <mxCell id="GaQ0T8FDwDxEnOl5zq54-33" value="" style="edgeStyle=orthogonalEdgeStyle;rounded=1;orthogonalLoop=1;jettySize=auto;html=1;" parent="GaQ0T8FDwDxEnOl5zq54-8" source="GaQ0T8FDwDxEnOl5zq54-31" edge="1">
          <mxGeometry relative="1" as="geometry">
            <mxPoint x="232" y="850" as="targetPoint" />
          </mxGeometry>
        </mxCell>
        <mxCell id="GaQ0T8FDwDxEnOl5zq54-31" value="Выбирает Товар" style="rounded=1;whiteSpace=wrap;html=1;" parent="GaQ0T8FDwDxEnOl5zq54-8" vertex="1">
          <mxGeometry x="157" y="710" width="150" height="40" as="geometry" />
        </mxCell>
        <mxCell id="GaQ0T8FDwDxEnOl5zq54-34" value="Переходит в Корзину" style="rounded=1;whiteSpace=wrap;html=1;" parent="GaQ0T8FDwDxEnOl5zq54-8" vertex="1">
          <mxGeometry x="157" y="850" width="150" height="40" as="geometry" />
        </mxCell>
        <mxCell id="GaQ0T8FDwDxEnOl5zq54-37" value="" style="strokeWidth=2;html=1;shape=mxgraph.flowchart.annotation_2;align=left;labelPosition=right;pointerEvents=1;rounded=1;rotation=90;" parent="GaQ0T8FDwDxEnOl5zq54-8" vertex="1">
          <mxGeometry x="186.88" y="816.88" width="90" height="236.25" as="geometry" />
        </mxCell>
        <mxCell id="GaQ0T8FDwDxEnOl5zq54-41" value="" style="edgeStyle=orthogonalEdgeStyle;rounded=1;orthogonalLoop=1;jettySize=auto;html=1;" parent="GaQ0T8FDwDxEnOl5zq54-8" source="GaQ0T8FDwDxEnOl5zq54-38" edge="1">
          <mxGeometry relative="1" as="geometry">
            <mxPoint x="115" y="1120" as="targetPoint" />
          </mxGeometry>
        </mxCell>
        <mxCell id="GaQ0T8FDwDxEnOl5zq54-38" value="Зарегистрирован" style="rounded=1;whiteSpace=wrap;html=1;" parent="GaQ0T8FDwDxEnOl5zq54-8" vertex="1">
          <mxGeometry x="40" y="980" width="150" height="40" as="geometry" />
        </mxCell>
        <mxCell id="GaQ0T8FDwDxEnOl5zq54-47" value="" style="edgeStyle=orthogonalEdgeStyle;rounded=1;orthogonalLoop=1;jettySize=auto;html=1;" parent="GaQ0T8FDwDxEnOl5zq54-8" source="GaQ0T8FDwDxEnOl5zq54-39" edge="1">
          <mxGeometry relative="1" as="geometry">
            <mxPoint x="351.8799999999999" y="1120" as="targetPoint" />
          </mxGeometry>
        </mxCell>
        <mxCell id="GaQ0T8FDwDxEnOl5zq54-39" value="Не Зарегистрирован" style="rounded=1;whiteSpace=wrap;html=1;" parent="GaQ0T8FDwDxEnOl5zq54-8" vertex="1">
          <mxGeometry x="276.88" y="980" width="150" height="40" as="geometry" />
        </mxCell>
        <mxCell id="GaQ0T8FDwDxEnOl5zq54-44" value="" style="edgeStyle=orthogonalEdgeStyle;rounded=1;orthogonalLoop=1;jettySize=auto;html=1;" parent="GaQ0T8FDwDxEnOl5zq54-8" source="GaQ0T8FDwDxEnOl5zq54-42" edge="1">
          <mxGeometry relative="1" as="geometry">
            <mxPoint x="115" y="1260" as="targetPoint" />
          </mxGeometry>
        </mxCell>
        <mxCell id="GaQ0T8FDwDxEnOl5zq54-42" value="Оформляет Заказ" style="rounded=1;whiteSpace=wrap;html=1;" parent="GaQ0T8FDwDxEnOl5zq54-8" vertex="1">
          <mxGeometry x="40" y="1120" width="150" height="40" as="geometry" />
        </mxCell>
        <mxCell id="GaQ0T8FDwDxEnOl5zq54-45" value="Приходит SMS, что скоро с ним свяжутся" style="rounded=1;whiteSpace=wrap;html=1;" parent="GaQ0T8FDwDxEnOl5zq54-8" vertex="1">
          <mxGeometry x="10" y="1260" width="210" height="40" as="geometry" />
        </mxCell>
        <mxCell id="GaQ0T8FDwDxEnOl5zq54-55" value="" style="edgeStyle=orthogonalEdgeStyle;rounded=1;orthogonalLoop=1;jettySize=auto;html=1;" parent="GaQ0T8FDwDxEnOl5zq54-8" source="GaQ0T8FDwDxEnOl5zq54-48" target="GaQ0T8FDwDxEnOl5zq54-50" edge="1">
          <mxGeometry relative="1" as="geometry" />
        </mxCell>
        <mxCell id="GaQ0T8FDwDxEnOl5zq54-48" value="Вводит Телефон и Имя" style="rounded=1;whiteSpace=wrap;html=1;" parent="GaQ0T8FDwDxEnOl5zq54-8" vertex="1">
          <mxGeometry x="276.88" y="1120" width="150" height="40" as="geometry" />
        </mxCell>
        <mxCell id="GaQ0T8FDwDxEnOl5zq54-50" value="Оформляет Заказ" style="rounded=1;whiteSpace=wrap;html=1;" parent="GaQ0T8FDwDxEnOl5zq54-8" vertex="1">
          <mxGeometry x="276.88" y="1260" width="150" height="40" as="geometry" />
        </mxCell>
        <mxCell id="GaQ0T8FDwDxEnOl5zq54-49" value="" style="edgeStyle=orthogonalEdgeStyle;rounded=1;orthogonalLoop=1;jettySize=auto;html=1;" parent="GaQ0T8FDwDxEnOl5zq54-8" source="GaQ0T8FDwDxEnOl5zq54-50" target="GaQ0T8FDwDxEnOl5zq54-52" edge="1">
          <mxGeometry relative="1" as="geometry" />
        </mxCell>
        <mxCell id="GaQ0T8FDwDxEnOl5zq54-57" value="" style="edgeStyle=orthogonalEdgeStyle;rounded=1;orthogonalLoop=1;jettySize=auto;html=1;" parent="GaQ0T8FDwDxEnOl5zq54-8" source="GaQ0T8FDwDxEnOl5zq54-52" edge="1">
          <mxGeometry relative="1" as="geometry">
            <mxPoint x="351.8800000000001" y="1520" as="targetPoint" />
          </mxGeometry>
        </mxCell>
        <mxCell id="GaQ0T8FDwDxEnOl5zq54-52" value="Приходит SMS, что скоро с ним свяжутся" style="rounded=1;whiteSpace=wrap;html=1;" parent="GaQ0T8FDwDxEnOl5zq54-8" vertex="1">
          <mxGeometry x="246.88" y="1380" width="210" height="40" as="geometry" />
        </mxCell>
        <mxCell id="GaQ0T8FDwDxEnOl5zq54-58" value="Заказ Переходит в Оформленные заказы" style="rounded=1;whiteSpace=wrap;html=1;" parent="GaQ0T8FDwDxEnOl5zq54-8" vertex="1">
          <mxGeometry x="246.88" y="1520" width="210" height="40" as="geometry" />
        </mxCell>
        <mxCell id="GaQ0T8FDwDxEnOl5zq54-61" value="" style="edgeStyle=orthogonalEdgeStyle;rounded=1;orthogonalLoop=1;jettySize=auto;html=1;entryX=1;entryY=0.5;entryDx=0;entryDy=0;" parent="GaQ0T8FDwDxEnOl5zq54-8" edge="1">
          <mxGeometry relative="1" as="geometry">
            <mxPoint x="466.9047619047619" y="320" as="sourcePoint" />
            <mxPoint x="332" y="440" as="targetPoint" />
            <Array as="points">
              <mxPoint x="467" y="375" />
              <mxPoint x="380" y="375" />
              <mxPoint x="380" y="440" />
            </Array>
          </mxGeometry>
        </mxCell>
        <mxCell id="GaQ0T8FDwDxEnOl5zq54-59" value="В Header в выпадающем списке видит &quot;Купить Оптом&quot;" style="rounded=1;whiteSpace=wrap;html=1;" parent="GaQ0T8FDwDxEnOl5zq54-8" vertex="1">
          <mxGeometry x="370" y="290" width="193.75" height="40" as="geometry" />
        </mxCell>
        <mxCell id="GaQ0T8FDwDxEnOl5zq54-69" value="" style="edgeStyle=orthogonalEdgeStyle;rounded=1;orthogonalLoop=1;jettySize=auto;html=1;entryX=0.996;entryY=0.624;entryDx=0;entryDy=0;entryPerimeter=0;exitX=0.482;exitY=0.945;exitDx=0;exitDy=0;exitPerimeter=0;" parent="GaQ0T8FDwDxEnOl5zq54-8" source="GaQ0T8FDwDxEnOl5zq54-67" edge="1">
          <mxGeometry relative="1" as="geometry">
            <mxPoint x="765.8" y="336" as="sourcePoint" />
            <mxPoint x="332.00000000000006" y="460.96000000000004" as="targetPoint" />
            <Array as="points">
              <mxPoint x="761" y="416" />
              <mxPoint x="641" y="416" />
              <mxPoint x="641" y="461" />
            </Array>
          </mxGeometry>
        </mxCell>
        <mxCell id="GaQ0T8FDwDxEnOl5zq54-67" value="В конце сайта после призывающего текста Видит &quot;Купить Оптом&quot;" style="rounded=1;whiteSpace=wrap;html=1;" parent="GaQ0T8FDwDxEnOl5zq54-8" vertex="1">
          <mxGeometry x="660" y="290" width="210" height="40" as="geometry" />
        </mxCell>
        <mxCell id="GaQ0T8FDwDxEnOl5zq54-71" value="" style="swimlane;rounded=1;startSize=23;fontSize=18;" parent="1" vertex="1">
          <mxGeometry x="1220" y="10" width="690" height="1530" as="geometry" />
        </mxCell>
        <mxCell id="GaQ0T8FDwDxEnOl5zq54-72" value="&lt;font style=&quot;font-size: 18px;&quot;&gt;&lt;b&gt;Оптовый Поставщик&lt;/b&gt;&lt;/font&gt;" style="text;html=1;align=center;verticalAlign=middle;resizable=0;points=[];autosize=1;strokeColor=none;fillColor=none;" parent="GaQ0T8FDwDxEnOl5zq54-71" vertex="1">
          <mxGeometry x="240" y="-8" width="210" height="40" as="geometry" />
        </mxCell>
        <mxCell id="GaQ0T8FDwDxEnOl5zq54-74" value="Видит рекламу" style="rounded=1;whiteSpace=wrap;html=1;" parent="GaQ0T8FDwDxEnOl5zq54-71" vertex="1">
          <mxGeometry x="290" y="50" width="110" height="40" as="geometry" />
        </mxCell>
        <mxCell id="GaQ0T8FDwDxEnOl5zq54-75" value="Попадает на сайт" style="rounded=1;whiteSpace=wrap;html=1;" parent="GaQ0T8FDwDxEnOl5zq54-71" vertex="1">
          <mxGeometry x="290" y="170" width="110" height="40" as="geometry" />
        </mxCell>
        <mxCell id="GaQ0T8FDwDxEnOl5zq54-73" value="" style="edgeStyle=orthogonalEdgeStyle;rounded=1;orthogonalLoop=1;jettySize=auto;html=1;" parent="GaQ0T8FDwDxEnOl5zq54-71" source="GaQ0T8FDwDxEnOl5zq54-74" target="GaQ0T8FDwDxEnOl5zq54-75" edge="1">
          <mxGeometry relative="1" as="geometry">
            <mxPoint x="345" y="170" as="targetPoint" />
          </mxGeometry>
        </mxCell>
        <mxCell id="GaQ0T8FDwDxEnOl5zq54-76" value="" style="strokeWidth=2;html=1;shape=mxgraph.flowchart.annotation_2;align=left;labelPosition=right;pointerEvents=1;rotation=90;rounded=1;" parent="GaQ0T8FDwDxEnOl5zq54-71" vertex="1">
          <mxGeometry x="305.07" y="109.56" width="80.37" height="281.25" as="geometry" />
        </mxCell>
        <mxCell id="GaQ0T8FDwDxEnOl5zq54-82" value="" style="edgeStyle=orthogonalEdgeStyle;rounded=1;orthogonalLoop=1;jettySize=auto;html=1;entryX=-0.009;entryY=0.521;entryDx=0;entryDy=0;entryPerimeter=0;" parent="GaQ0T8FDwDxEnOl5zq54-71" edge="1">
          <mxGeometry relative="1" as="geometry">
            <mxPoint x="203.96" y="305.37" as="sourcePoint" />
            <mxPoint x="271.1258400000002" y="410.8399999999999" as="targetPoint" />
            <Array as="points">
              <mxPoint x="204.33" y="411" />
            </Array>
          </mxGeometry>
        </mxCell>
        <mxCell id="GaQ0T8FDwDxEnOl5zq54-77" value="Видит Слайд для оптовых поставщиков" style="rounded=1;whiteSpace=wrap;html=1;" parent="GaQ0T8FDwDxEnOl5zq54-71" vertex="1">
          <mxGeometry x="130" y="274.37" width="147" height="40" as="geometry" />
        </mxCell>
        <mxCell id="GaQ0T8FDwDxEnOl5zq54-87" value="" style="edgeStyle=orthogonalEdgeStyle;rounded=1;orthogonalLoop=1;jettySize=auto;html=1;entryX=1;entryY=0.5;entryDx=0;entryDy=0;" parent="GaQ0T8FDwDxEnOl5zq54-71" target="GaQ0T8FDwDxEnOl5zq54-80" edge="1">
          <mxGeometry relative="1" as="geometry">
            <mxPoint x="485" y="314.37" as="sourcePoint" />
            <mxPoint x="405" y="410" as="targetPoint" />
            <Array as="points">
              <mxPoint x="485" y="410" />
            </Array>
          </mxGeometry>
        </mxCell>
        <mxCell id="GaQ0T8FDwDxEnOl5zq54-78" value="В Header в выпадающем списке видит &quot;Продать Оптом&quot;" style="rounded=1;whiteSpace=wrap;html=1;" parent="GaQ0T8FDwDxEnOl5zq54-71" vertex="1">
          <mxGeometry x="386" y="274.37" width="193.75" height="40" as="geometry" />
        </mxCell>
        <mxCell id="GaQ0T8FDwDxEnOl5zq54-89" value="" style="edgeStyle=orthogonalEdgeStyle;rounded=1;orthogonalLoop=1;jettySize=auto;html=1;" parent="GaQ0T8FDwDxEnOl5zq54-71" source="GaQ0T8FDwDxEnOl5zq54-80" edge="1">
          <mxGeometry relative="1" as="geometry">
            <mxPoint x="345.25" y="530" as="targetPoint" />
            <Array as="points">
              <mxPoint x="345" y="480" />
              <mxPoint x="345" y="480" />
            </Array>
          </mxGeometry>
        </mxCell>
        <mxCell id="GaQ0T8FDwDxEnOl5zq54-80" value="Кликает на Кнопку &quot;Продать Оптом&quot;" style="rounded=1;whiteSpace=wrap;html=1;" parent="GaQ0T8FDwDxEnOl5zq54-71" vertex="1">
          <mxGeometry x="271.13" y="390" width="148.24" height="40" as="geometry" />
        </mxCell>
        <mxCell id="GaQ0T8FDwDxEnOl5zq54-93" value="" style="edgeStyle=orthogonalEdgeStyle;rounded=1;orthogonalLoop=1;jettySize=auto;html=1;" parent="GaQ0T8FDwDxEnOl5zq54-71" source="GaQ0T8FDwDxEnOl5zq54-90" edge="1">
          <mxGeometry relative="1" as="geometry">
            <mxPoint x="344.9949999999999" y="700" as="targetPoint" />
          </mxGeometry>
        </mxCell>
        <mxCell id="GaQ0T8FDwDxEnOl5zq54-90" value="Попадает на Страницу, которая более подробно объясняет как мы работает с Оптовыми Поставщиками и показывает какой товар всегда нужен" style="rounded=1;whiteSpace=wrap;html=1;" parent="GaQ0T8FDwDxEnOl5zq54-71" vertex="1">
          <mxGeometry x="170.34" y="530" width="349.31" height="60" as="geometry" />
        </mxCell>
        <mxCell id="GaQ0T8FDwDxEnOl5zq54-94" value="Заполняет Форму" style="rounded=1;whiteSpace=wrap;html=1;" parent="GaQ0T8FDwDxEnOl5zq54-71" vertex="1">
          <mxGeometry x="271.1300000000001" y="700" width="148.24" height="40" as="geometry" />
        </mxCell>
        <mxCell id="GaQ0T8FDwDxEnOl5zq54-101" value="" style="strokeWidth=2;html=1;shape=mxgraph.flowchart.annotation_2;align=left;labelPosition=right;pointerEvents=1;rounded=1;rotation=90;" parent="GaQ0T8FDwDxEnOl5zq54-71" vertex="1">
          <mxGeometry x="284.55" y="682.15" width="120.3" height="236.25" as="geometry" />
        </mxCell>
        <mxCell id="GaQ0T8FDwDxEnOl5zq54-108" value="" style="edgeStyle=orthogonalEdgeStyle;rounded=1;orthogonalLoop=1;jettySize=auto;html=1;entryX=0;entryY=0.5;entryDx=0;entryDy=0;" parent="GaQ0T8FDwDxEnOl5zq54-71" target="GaQ0T8FDwDxEnOl5zq54-109" edge="1">
          <mxGeometry relative="1" as="geometry">
            <mxPoint x="226.99857142857147" y="900" as="sourcePoint" />
            <mxPoint x="316.66999999999985" y="1130" as="targetPoint" />
            <Array as="points">
              <mxPoint x="227" y="1130" />
            </Array>
          </mxGeometry>
        </mxCell>
        <mxCell id="GaQ0T8FDwDxEnOl5zq54-102" value="Зарегистрирован" style="rounded=1;whiteSpace=wrap;html=1;" parent="GaQ0T8FDwDxEnOl5zq54-71" vertex="1">
          <mxGeometry x="155.06999999999994" y="860" width="150" height="40" as="geometry" />
        </mxCell>
        <mxCell id="GaQ0T8FDwDxEnOl5zq54-105" value="" style="edgeStyle=orthogonalEdgeStyle;rounded=1;orthogonalLoop=1;jettySize=auto;html=1;" parent="GaQ0T8FDwDxEnOl5zq54-71" source="GaQ0T8FDwDxEnOl5zq54-103" edge="1">
          <mxGeometry relative="1" as="geometry">
            <mxPoint x="461" y="1000" as="targetPoint" />
          </mxGeometry>
        </mxCell>
        <mxCell id="GaQ0T8FDwDxEnOl5zq54-103" value="Не Зарегистрирован" style="rounded=1;whiteSpace=wrap;html=1;" parent="GaQ0T8FDwDxEnOl5zq54-71" vertex="1">
          <mxGeometry x="386.00000000000006" y="860" width="150" height="40" as="geometry" />
        </mxCell>
        <mxCell id="GaQ0T8FDwDxEnOl5zq54-115" value="" style="edgeStyle=orthogonalEdgeStyle;rounded=1;orthogonalLoop=1;jettySize=auto;html=1;" parent="GaQ0T8FDwDxEnOl5zq54-71" edge="1">
          <mxGeometry relative="1" as="geometry">
            <mxPoint x="460.33448275862094" y="1030" as="sourcePoint" />
            <mxPoint x="420" y="1130" as="targetPoint" />
            <Array as="points">
              <mxPoint x="460" y="1130" />
            </Array>
          </mxGeometry>
        </mxCell>
        <mxCell id="GaQ0T8FDwDxEnOl5zq54-106" value="Вводит Телефон и Имя" style="rounded=1;whiteSpace=wrap;html=1;" parent="GaQ0T8FDwDxEnOl5zq54-71" vertex="1">
          <mxGeometry x="386" y="1000" width="150" height="40" as="geometry" />
        </mxCell>
        <mxCell id="GaQ0T8FDwDxEnOl5zq54-118" value="" style="edgeStyle=orthogonalEdgeStyle;rounded=1;orthogonalLoop=1;jettySize=auto;html=1;" parent="GaQ0T8FDwDxEnOl5zq54-71" source="GaQ0T8FDwDxEnOl5zq54-109" edge="1">
          <mxGeometry relative="1" as="geometry">
            <mxPoint x="344.6999999999998" y="1250" as="targetPoint" />
          </mxGeometry>
        </mxCell>
        <mxCell id="GaQ0T8FDwDxEnOl5zq54-109" value="Отправляет Заявку" style="rounded=1;whiteSpace=wrap;html=1;" parent="GaQ0T8FDwDxEnOl5zq54-71" vertex="1">
          <mxGeometry x="269.7" y="1110" width="150" height="40" as="geometry" />
        </mxCell>
        <mxCell id="GaQ0T8FDwDxEnOl5zq54-119" value="Приходит SMS, что скоро с ним свяжутся" style="rounded=1;whiteSpace=wrap;html=1;" parent="GaQ0T8FDwDxEnOl5zq54-71" vertex="1">
          <mxGeometry x="240.25999999999982" y="1250" width="210" height="40" as="geometry" />
        </mxCell>
        <mxCell id="GaQ0T8FDwDxEnOl5zq54-121" value="Приоритет задач для сайта" style="swimlane;fontStyle=0;childLayout=stackLayout;horizontal=1;startSize=26;fillColor=none;horizontalStack=0;resizeParent=1;resizeParentMax=0;resizeLast=0;collapsible=1;marginBottom=0;html=1;rounded=1;" parent="1" vertex="1">
          <mxGeometry x="80" y="2280" width="360" height="272" as="geometry" />
        </mxCell>
        <mxCell id="GaQ0T8FDwDxEnOl5zq54-122" value="1. Cделать Скелет сайта (Базовая Верстка, Основная Страница, Разобраться Со Слайдерами)" style="text;strokeColor=none;fillColor=none;align=left;verticalAlign=top;spacingLeft=4;spacingRight=4;overflow=hidden;rotatable=0;points=[[0,0.5],[1,0.5]];portConstraint=eastwest;whiteSpace=wrap;html=1;" parent="GaQ0T8FDwDxEnOl5zq54-121" vertex="1">
          <mxGeometry y="26" width="360" height="54" as="geometry" />
        </mxCell>
        <mxCell id="GaQ0T8FDwDxEnOl5zq54-125" value="2. Сделать Адаптивную Верстку" style="text;strokeColor=none;fillColor=none;align=left;verticalAlign=top;spacingLeft=4;spacingRight=4;overflow=hidden;rotatable=0;points=[[0,0.5],[1,0.5]];portConstraint=eastwest;whiteSpace=wrap;html=1;" parent="GaQ0T8FDwDxEnOl5zq54-121" vertex="1">
          <mxGeometry y="80" width="360" height="40" as="geometry" />
        </mxCell>
        <mxCell id="GaQ0T8FDwDxEnOl5zq54-123" value="3. Начать делать функционал (Каталог, Поиск, Корзина, Регистрация по Телефону и Имени, Обратный Звонок)" style="text;strokeColor=none;fillColor=none;align=left;verticalAlign=top;spacingLeft=4;spacingRight=4;overflow=hidden;rotatable=0;points=[[0,0.5],[1,0.5]];portConstraint=eastwest;whiteSpace=wrap;html=1;" parent="GaQ0T8FDwDxEnOl5zq54-121" vertex="1">
          <mxGeometry y="120" width="360" height="50" as="geometry" />
        </mxCell>
        <mxCell id="GaQ0T8FDwDxEnOl5zq54-124" value="4. Заняться Второстепенными Страницами" style="text;strokeColor=none;fillColor=none;align=left;verticalAlign=top;spacingLeft=4;spacingRight=4;overflow=hidden;rotatable=0;points=[[0,0.5],[1,0.5]];portConstraint=eastwest;whiteSpace=wrap;html=1;" parent="GaQ0T8FDwDxEnOl5zq54-121" vertex="1">
          <mxGeometry y="170" width="360" height="40" as="geometry" />
        </mxCell>
        <mxCell id="GaQ0T8FDwDxEnOl5zq54-126" value="5. Настроить SEO, Аналитику, оптимизировать сайт для браузеров" style="text;strokeColor=none;fillColor=none;align=left;verticalAlign=top;spacingLeft=4;spacingRight=4;overflow=hidden;rotatable=0;points=[[0,0.5],[1,0.5]];portConstraint=eastwest;whiteSpace=wrap;html=1;" parent="GaQ0T8FDwDxEnOl5zq54-121" vertex="1">
          <mxGeometry y="210" width="360" height="62" as="geometry" />
        </mxCell>
        <mxCell id="GaQ0T8FDwDxEnOl5zq54-128" value="Подзадачи" style="swimlane;rounded=1;" parent="1" vertex="1">
          <mxGeometry x="670" y="2280" width="640" height="530" as="geometry" />
        </mxCell>
        <mxCell id="GaQ0T8FDwDxEnOl5zq54-131" value="Базовая Верстка" style="swimlane;fontStyle=0;childLayout=stackLayout;horizontal=1;startSize=26;fillColor=none;horizontalStack=0;resizeParent=1;resizeParentMax=0;resizeLast=0;collapsible=1;marginBottom=0;html=1;rounded=1;" parent="GaQ0T8FDwDxEnOl5zq54-128" vertex="1">
          <mxGeometry x="10" y="40" width="240" height="130" as="geometry" />
        </mxCell>
        <mxCell id="GaQ0T8FDwDxEnOl5zq54-132" value="Цветовая Гамма Сайта" style="text;strokeColor=none;fillColor=none;align=left;verticalAlign=top;spacingLeft=4;spacingRight=4;overflow=hidden;rotatable=0;points=[[0,0.5],[1,0.5]];portConstraint=eastwest;whiteSpace=wrap;html=1;" parent="GaQ0T8FDwDxEnOl5zq54-131" vertex="1">
          <mxGeometry y="26" width="240" height="26" as="geometry" />
        </mxCell>
        <mxCell id="GaQ0T8FDwDxEnOl5zq54-133" value="Правильная Семантика" style="text;strokeColor=none;fillColor=none;align=left;verticalAlign=top;spacingLeft=4;spacingRight=4;overflow=hidden;rotatable=0;points=[[0,0.5],[1,0.5]];portConstraint=eastwest;whiteSpace=wrap;html=1;" parent="GaQ0T8FDwDxEnOl5zq54-131" vertex="1">
          <mxGeometry y="52" width="240" height="26" as="geometry" />
        </mxCell>
        <mxCell id="GaQ0T8FDwDxEnOl5zq54-135" value="Правильное составление Layout" style="text;strokeColor=none;fillColor=none;align=left;verticalAlign=top;spacingLeft=4;spacingRight=4;overflow=hidden;rotatable=0;points=[[0,0.5],[1,0.5]];portConstraint=eastwest;whiteSpace=wrap;html=1;" parent="GaQ0T8FDwDxEnOl5zq54-131" vertex="1">
          <mxGeometry y="78" width="240" height="26" as="geometry" />
        </mxCell>
        <mxCell id="GaQ0T8FDwDxEnOl5zq54-134" value="Должна быть Современная, Приятная" style="text;strokeColor=none;fillColor=none;align=left;verticalAlign=top;spacingLeft=4;spacingRight=4;overflow=hidden;rotatable=0;points=[[0,0.5],[1,0.5]];portConstraint=eastwest;whiteSpace=wrap;html=1;" parent="GaQ0T8FDwDxEnOl5zq54-131" vertex="1">
          <mxGeometry y="104" width="240" height="26" as="geometry" />
        </mxCell>
        <mxCell id="GaQ0T8FDwDxEnOl5zq54-136" value="Адаптив" style="swimlane;fontStyle=0;childLayout=stackLayout;horizontal=1;startSize=26;fillColor=none;horizontalStack=0;resizeParent=1;resizeParentMax=0;resizeLast=0;collapsible=1;marginBottom=0;html=1;rounded=1;" parent="GaQ0T8FDwDxEnOl5zq54-128" vertex="1">
          <mxGeometry x="310" y="40" width="210" height="78" as="geometry" />
        </mxCell>
        <mxCell id="GaQ0T8FDwDxEnOl5zq54-137" value="Сохранить весь функционал" style="text;strokeColor=none;fillColor=none;align=left;verticalAlign=top;spacingLeft=4;spacingRight=4;overflow=hidden;rotatable=0;points=[[0,0.5],[1,0.5]];portConstraint=eastwest;whiteSpace=wrap;html=1;" parent="GaQ0T8FDwDxEnOl5zq54-136" vertex="1">
          <mxGeometry y="26" width="210" height="26" as="geometry" />
        </mxCell>
        <mxCell id="GaQ0T8FDwDxEnOl5zq54-138" value="Правильно расположить текст" style="text;strokeColor=none;fillColor=none;align=left;verticalAlign=top;spacingLeft=4;spacingRight=4;overflow=hidden;rotatable=0;points=[[0,0.5],[1,0.5]];portConstraint=eastwest;whiteSpace=wrap;html=1;" parent="GaQ0T8FDwDxEnOl5zq54-136" vertex="1">
          <mxGeometry y="52" width="210" height="26" as="geometry" />
        </mxCell>
        <mxCell id="GaQ0T8FDwDxEnOl5zq54-141" value="Основной Функционал" style="swimlane;fontStyle=0;childLayout=stackLayout;horizontal=1;startSize=26;fillColor=none;horizontalStack=0;resizeParent=1;resizeParentMax=0;resizeLast=0;collapsible=1;marginBottom=0;html=1;rounded=1;" parent="GaQ0T8FDwDxEnOl5zq54-128" vertex="1">
          <mxGeometry x="10" y="210" width="210" height="52" as="geometry" />
        </mxCell>
        <mxCell id="GaQ0T8FDwDxEnOl5zq54-144" value="Второстепенные страницы" style="swimlane;fontStyle=0;childLayout=stackLayout;horizontal=1;startSize=26;fillColor=none;horizontalStack=0;resizeParent=1;resizeParentMax=0;resizeLast=0;collapsible=1;marginBottom=0;html=1;rounded=1;" parent="GaQ0T8FDwDxEnOl5zq54-128" vertex="1">
          <mxGeometry x="350" y="210" width="210" height="52" as="geometry" />
        </mxCell>
        <mxCell id="GaQ0T8FDwDxEnOl5zq54-145" value="SEO" style="swimlane;fontStyle=0;childLayout=stackLayout;horizontal=1;startSize=26;fillColor=none;horizontalStack=0;resizeParent=1;resizeParentMax=0;resizeLast=0;collapsible=1;marginBottom=0;html=1;rounded=1;" parent="GaQ0T8FDwDxEnOl5zq54-128" vertex="1">
          <mxGeometry x="10" y="330" width="210" height="52" as="geometry" />
        </mxCell>
        <mxCell id="GaQ0T8FDwDxEnOl5zq54-146" value="Аналитика" style="swimlane;fontStyle=0;childLayout=stackLayout;horizontal=1;startSize=26;fillColor=none;horizontalStack=0;resizeParent=1;resizeParentMax=0;resizeLast=0;collapsible=1;marginBottom=0;html=1;rounded=1;" parent="GaQ0T8FDwDxEnOl5zq54-128" vertex="1">
          <mxGeometry x="350" y="330" width="210" height="52" as="geometry" />
        </mxCell>
      </root>
    </mxGraphModel>
  </diagram>
</mxfile>
